<?xml version="1.0" standalone="no"?>
<!DOCTYPE svg PUBLIC "-//W3C//DTD SVG 1.1//EN" "http://www.w3.org/Graphics/SVG/1.1/DTD/svg11.dtd">
<svg version="1.1" xmlns="http://www.w3.org/2000/svg" viewBox="0 0 241.93299177778658 202.14697374643436" width="725.7989753333597" height="606.4409212393031"><!-- svg-source:excalidraw --><metadata></metadata><defs><style class="style-fonts">
      </style></defs><g stroke-linecap="round"><g transform="translate(167.47669000221367 34.198556684538914) rotate(80.78621674771988 0.81653468812965 3.7324714672195967)" fill-rule="evenodd"><path d="M0 0 C-0.49 1.19, -3.73 6.2, -2.95 7.13 C-2.18 8.07, 4.18 6.83, 4.67 5.64 C5.16 4.45, 0.78 0.94, 0 0" stroke="none" stroke-width="0" fill="#1e1e1e" fill-rule="evenodd"></path><path d="M0 0 C-0.49 1.19, -3.73 6.2, -2.95 7.13 C-2.18 8.07, 4.18 6.83, 4.67 5.64 C5.16 4.45, 0.78 0.94, 0 0 M0 0 C-0.49 1.19, -3.73 6.2, -2.95 7.13 C-2.18 8.07, 4.18 6.83, 4.67 5.64 C5.16 4.45, 0.78 0.94, 0 0" stroke="#1e1e1e" stroke-width="4" fill="none"></path></g></g><mask></mask><g stroke-linecap="round"><g transform="translate(62.53282698519354 169.81904369295455) rotate(0 60.13740807338411 5.196201627548362)" fill-rule="evenodd"><path d="M-0.64 1.41 C-7.07 3.98, -50.43 9.89, -40.9 13.09 C-31.37 16.29, 23.13 22.63, 56.55 20.61 C89.96 18.59, 150.93 6.41, 159.6 0.98 C168.27 -4.44, 135.03 -11.53, 108.57 -11.93 C82.12 -12.34, 19.04 -3.74, 0.87 -1.45" stroke="none" stroke-width="0" fill="#1e1e1e" fill-rule="evenodd"></path><path d="M0.26 -1 C-6.58 1.09, -49.53 9.21, -39.86 12.81 C-30.19 16.41, 24.84 22.6, 58.28 20.59 C91.72 18.59, 152.23 6.18, 160.79 0.76 C169.34 -4.66, 136.52 -11.74, 109.63 -11.93 C82.73 -12.12, 17.51 -2.53, -0.59 -0.39 M-1.06 1.08 C-8.1 3.33, -50.19 10.77, -40.44 14.21 C-30.68 17.66, 23.99 24.35, 57.49 21.74 C90.99 19.12, 152.11 4, 160.57 -1.47 C169.04 -6.95, 134.94 -11.08, 108.26 -11.1 C81.59 -11.13, 18.8 -3.49, 0.52 -1.64" stroke="#1e1e1e" stroke-width="4" fill="none"></path></g></g><mask></mask><g stroke-linecap="round"><g transform="translate(18.89369355248914 77.77472646087813) rotate(0 102.0728023364041 19.01508037966289)" fill-rule="evenodd"><path d="M-0.64 -1.79 C-1.24 8.16, -18.72 42.81, -3.4 60.38 C11.92 77.95, 65.22 101.48, 91.3 103.63 C117.37 105.77, 141.75 90.33, 153.06 73.27 C164.37 56.2, 151.59 16.97, 159.17 1.23 C166.75 -14.51, 189.88 -12.97, 198.56 -21.17 C207.24 -29.36, 214.4 -43.17, 211.25 -47.92 C208.11 -52.67, 189.12 -46.27, 179.7 -49.65 C170.28 -53.03, 165.09 -67.42, 154.72 -68.19 C144.36 -68.96, 125.31 -63.85, 117.51 -54.26 C109.7 -44.66, 112.55 -22.14, 107.89 -10.61 C103.22 0.92, 104.31 10.03, 89.51 14.92 C74.71 19.82, 34.28 21.55, 19.08 18.78 C3.88 16, 1.1 1.08, -1.68 -1.73" stroke="none" stroke-width="0" fill="#ffec99" fill-rule="evenodd"></path><path d="M-0.69 -1.11 C-1.01 9.47, -17.65 44.69, -2.61 62.3 C12.43 79.92, 63.49 102.4, 89.56 104.57 C115.63 106.74, 141.97 92.83, 153.81 75.33 C165.65 57.84, 152.87 15.64, 160.59 -0.4 C168.31 -16.44, 191.54 -13.31, 200.15 -20.89 C208.75 -28.48, 215.43 -41.2, 212.22 -45.93 C209 -50.66, 190.64 -45.63, 180.85 -49.27 C171.06 -52.9, 163.48 -67.3, 153.48 -67.75 C143.47 -68.2, 128.25 -61.43, 120.81 -51.96 C113.38 -42.5, 113.74 -21.82, 108.88 -10.95 C104.02 -0.08, 106.63 8.3, 91.63 13.24 C76.63 18.17, 33.98 20.97, 18.88 18.68 C3.77 16.38, 3.96 2.76, 1 -0.54 M1.14 0.92 C1.28 11.78, -14.84 46.2, -0.28 63.66 C14.27 81.12, 62.81 104.13, 88.46 105.7 C114.11 107.27, 141.84 90.73, 153.6 73.1 C165.37 55.47, 151.58 15.73, 159.03 -0.07 C166.48 -15.88, 189.39 -13.93, 198.29 -21.74 C207.19 -29.55, 215.39 -42.32, 212.42 -46.94 C209.44 -51.57, 190.54 -46.33, 180.43 -49.51 C170.32 -52.69, 162.11 -65.56, 151.78 -66.01 C141.46 -66.45, 125.52 -61.41, 118.48 -52.17 C111.44 -42.92, 114.16 -21.3, 109.55 -10.51 C104.94 0.28, 105.98 7.78, 90.83 12.56 C75.69 17.34, 33.67 20.43, 18.67 18.16 C3.67 15.9, 4.2 1.79, 0.83 -1.02" stroke="#1e1e1e" stroke-width="4" fill="none"></path></g></g><mask></mask><g stroke-linecap="round"><g transform="translate(121.27312694216516 104.61078444582881) rotate(0 -11.766565689216861 28.55506764642473)"><path d="M-0.17 0.57 C-9.21 5.09, -51.91 21.28, -54.48 26.25 C-57.04 31.23, -21.69 25.42, -15.55 30.44 C-9.41 35.45, -21.8 55.79, -17.64 56.32 C-13.47 56.86, 5.05 34.4, 9.44 33.66 C13.84 32.92, 5.18 51.75, 8.72 51.87 C12.26 51.99, 26.79 37.15, 30.68 34.37 M-1.72 -0.17 C-10.35 4.08, -50.27 19.32, -52.18 24.55 C-54.08 29.78, -18.82 25.76, -13.13 31.21 C-7.43 36.67, -21.54 56.81, -17.99 57.28 C-14.44 57.74, 3.56 35.02, 8.15 34.02 C12.74 33.02, 5.72 50.88, 9.55 51.26 C13.37 51.64, 27.41 39.04, 31.08 36.31" stroke="#1e1e1e" stroke-width="4" fill="none"></path></g></g><mask></mask><g stroke-linecap="round"><g transform="translate(191.32315809621082 24.213880624688443) rotate(0 14.863355197007536 23.3018531705965)" fill-rule="evenodd"><path d="M0 0 C0.94 1.54, 4.44 5.96, 5.65 9.25 C6.86 12.54, 7.77 15.62, 7.27 19.77 C6.77 23.92, 5.33 29.67, 2.67 34.14 C0 38.61, -10.28 46.35, -8.72 46.6 C-7.16 46.84, 6.54 38.27, 12.01 35.61 C17.48 32.95, 19.69 34.86, 24.12 30.66 C28.54 26.46, 37.93 14.31, 38.57 10.42 C39.2 6.54, 31.99 7.83, 27.93 7.34 C23.87 6.84, 17.86 8.07, 14.21 7.45 C10.55 6.84, 7.35 4.28, 5.98 3.64" stroke="none" stroke-width="0" fill="#1e1e1e" fill-rule="evenodd"></path><path d="M0 0 C0.94 1.54, 4.44 5.96, 5.65 9.25 C6.86 12.54, 7.77 15.62, 7.27 19.77 C6.77 23.92, 5.33 29.67, 2.67 34.14 C0 38.61, -10.28 46.35, -8.72 46.6 C-7.16 46.84, 6.54 38.27, 12.01 35.61 C17.48 32.95, 19.69 34.86, 24.12 30.66 C28.54 26.46, 37.93 14.31, 38.57 10.42 C39.2 6.54, 31.99 7.83, 27.93 7.34 C23.87 6.84, 17.86 8.07, 14.21 7.45 C10.55 6.84, 7.35 4.28, 5.98 3.64 M0 0 C0.94 1.54, 4.44 5.96, 5.65 9.25 C6.86 12.54, 7.77 15.62, 7.27 19.77 C6.77 23.92, 5.33 29.67, 2.67 34.14 C0 38.61, -10.28 46.35, -8.72 46.6 C-7.16 46.84, 6.54 38.27, 12.01 35.61 C17.48 32.95, 19.69 34.86, 24.12 30.66 C28.54 26.46, 37.93 14.31, 38.57 10.42 C39.2 6.54, 31.99 7.83, 27.93 7.34 C23.87 6.84, 17.86 8.07, 14.21 7.45 C10.55 6.84, 7.35 4.28, 5.98 3.64" stroke="#1e1e1e" stroke-width="2" fill="none"></path></g></g><mask></mask><g stroke-linecap="round"><g transform="translate(132.96264768790047 42.915949683606925) rotate(0 0.30983773992261376 15.75907858551264)"><path d="M0.31 -0.53 C0.05 3.15, -1.58 16.82, -1.26 22.14 C-0.95 27.46, 1.77 29.89, 2.2 31.39 M-0.19 0.38 C-0.53 3.92, -1.9 16.12, -1.52 21.4 C-1.14 26.68, 1.64 30.35, 2.1 32.05" stroke="#1e1e1e" stroke-width="4" fill="none"></path></g></g><mask></mask><g stroke-linecap="round" transform="translate(163.95055763561618 31.503452466090096) rotate(0 3.9207083233519597 3.8864951496966853)"><path d="M4.4 -0.07 C5.17 -0.02, 6.41 0.54, 7.02 1.18 C7.64 1.82, 8.14 2.93, 8.09 3.76 C8.04 4.59, 7.31 5.55, 6.71 6.18 C6.1 6.8, 5.23 7.32, 4.45 7.49 C3.68 7.67, 2.79 7.59, 2.06 7.22 C1.33 6.84, 0.34 6.04, 0.06 5.24 C-0.22 4.44, 0.09 3.21, 0.4 2.42 C0.7 1.63, 1.21 0.88, 1.88 0.49 C2.54 0.11, 3.94 0.16, 4.38 0.1 C4.83 0.05, 4.56 0.13, 4.56 0.17 M4.16 0.38 C4.83 0.51, 5.57 0.91, 6.18 1.48 C6.79 2.06, 7.66 3.11, 7.83 3.84 C8.01 4.57, 7.7 5.24, 7.23 5.86 C6.76 6.47, 5.78 7.3, 5.02 7.53 C4.26 7.76, 3.51 7.51, 2.7 7.22 C1.89 6.94, 0.51 6.54, 0.14 5.82 C-0.22 5.1, 0.24 3.68, 0.51 2.9 C0.78 2.12, 1.16 1.63, 1.77 1.15 C2.39 0.66, 3.79 0.2, 4.18 -0.01 C4.58 -0.22, 4.19 -0.18, 4.12 -0.1" stroke="none" stroke-width="0" fill="#1e1e1e"></path><path d="M3.75 -0.24 C4.54 -0.26, 5.32 0.54, 6.01 1.08 C6.69 1.63, 7.63 2.28, 7.87 3.05 C8.11 3.82, 7.82 5.03, 7.44 5.71 C7.07 6.38, 6.38 6.75, 5.64 7.12 C4.9 7.49, 3.86 8.1, 2.99 7.93 C2.11 7.75, 0.88 6.81, 0.39 6.08 C-0.11 5.34, -0.16 4.38, 0 3.49 C0.16 2.61, 0.66 1.37, 1.32 0.76 C1.99 0.14, 3.61 -0.03, 3.99 -0.18 C4.38 -0.33, 3.72 -0.24, 3.64 -0.14 M3.75 0.2 C4.6 0.16, 5.86 0.33, 6.5 0.76 C7.13 1.19, 7.34 1.99, 7.55 2.76 C7.76 3.53, 8.2 4.53, 7.77 5.37 C7.33 6.22, 5.86 7.51, 4.93 7.82 C4 8.13, 2.92 7.56, 2.2 7.21 C1.47 6.86, 0.97 6.45, 0.58 5.71 C0.2 4.97, -0.22 3.63, -0.11 2.77 C0 1.91, 0.65 1.08, 1.23 0.56 C1.82 0.04, 3 -0.33, 3.4 -0.34 C3.8 -0.35, 3.46 0.33, 3.62 0.49" stroke="#1e1e1e" stroke-width="2" fill="none"></path></g></svg>